<svg xmlns="http://www.w3.org/2000/svg" viewBox="0 0 240 240" width="240" height="240" role="img" aria-labelledby="title" data-type="fuunji"><title id="title">？？？</title><g id="bg"><rect width="240" height="240" fill="#C7EEDD" /><polygon points="120,8 203,56 203,152 120,200 36,152 36,56" fill="#A9E3CA" /></g><g id="back" /><g id="body"><polygon points="110,126 130,126 130,158 110,158" fill="#2A2233" id="neck" /><polygon points="72,166 98,150 142,150 168,166 184,240 56,240" fill="#2A2233" /><polygon points="128,150 142,150 168,166 184,240 132,240 142,196" fill="#2A2233" /><rect x="66" y="194" width="76" height="2.2" fill="#2A2233" /><rect x="142" y="194" width="33" height="2.2" fill="#2A2233" /><rect x="61" y="220" width="76" height="2.2" fill="#2A2233" /><rect x="137" y="220" width="43" height="2.2" fill="#2A2233" /><polygon points="117,164 123,164 123,240 117,240" fill="#2A2233" /><polygon points="112,182 128,182 128,186 112,186" fill="#2A2233" /><polygon points="112,204 128,204 128,208 112,208" fill="#2A2233" /><polygon points="112,226 128,226 128,230 112,230" fill="#2A2233" /><polygon points="90,150 96,144 104,148 112,143 120,147 128,143 136,148 144,144 150,150 152,162 146,168 138,164 130,170 120,166 110,170 102,164 94,168 88,162" fill="#2A2233" /><polygon points="120,147 128,143 136,148 144,144 150,150 152,162 146,168 138,164 130,170 120,166" fill="#2A2233" /></g><g id="head"><polygon points="86,94 79,97 80,110 87,114" fill="#2A2233" /><polygon points="154,94 161,97 160,110 153,114" fill="#2A2233" /><polygon points="86,80 96,60 120,52 144,60 154,80 154,108 146,126 120,138 94,126 86,108" fill="#2A2233" /><polygon points="142,62 154,80 154,108 146,126 120,138 134,120 141,98" fill="#2A2233" /></g><g id="hair" /><g id="headgear"><g data-sil="key"><polygon points="92,150 70,140 62,104 66,70 84,44 120,32 120,50 96,58 84,80 82,112" fill="#C7EEDD" stroke="#C7EEDD" stroke-width="6" stroke-linejoin="round" /><polygon points="148,150 170,140 178,104 174,70 156,44 120,32 120,50 144,58 156,80 158,112" fill="#C7EEDD" stroke="#C7EEDD" stroke-width="6" stroke-linejoin="round" /><polygon points="120,44 111.3,38.3 104.9,47.8 95.3,46.8 92.1,58.7 82.8,62.5 83.4,75.1 75.9,83.2 80,94.6 75.4,105.7 82.6,114.3 81.5,126.8 90.6,131.3 93.3,143.4 103,143.1 108,146 108,142 95,132 87,118 84,100 85,80 92,62 104,52 120,50" fill="#C7EEDD" stroke="#C7EEDD" stroke-width="6" stroke-linejoin="round" /><polygon points="120,44 128.7,38.3 135.1,47.8 144.7,46.8 147.9,58.7 157.2,62.5 156.6,75.1 164.1,83.2 160,94.6 164.6,105.7 157.4,114.3 158.5,126.8 149.4,131.3 146.7,143.4 137,143.1 132,146 132,142 145,132 153,118 156,100 155,80 148,62 136,52 120,50" fill="#C7EEDD" stroke="#C7EEDD" stroke-width="6" stroke-linejoin="round" /><polygon points="98,48 108,44 104,52 94,58" fill="#C7EEDD" stroke="#C7EEDD" stroke-width="6" stroke-linejoin="round" /></g><g data-sil="key"><polygon points="92,150 70,140 62,104 66,70 84,44 120,32 120,50 96,58 84,80 82,112" fill="#129C6C" /><polygon points="148,150 170,140 178,104 174,70 156,44 120,32 120,50 144,58 156,80 158,112" fill="#129C6C" /><polygon points="120,44 111.3,38.3 104.9,47.8 95.3,46.8 92.1,58.7 82.8,62.5 83.4,75.1 75.9,83.2 80,94.6 75.4,105.7 82.6,114.3 81.5,126.8 90.6,131.3 93.3,143.4 103,143.1 108,146 108,142 95,132 87,118 84,100 85,80 92,62 104,52 120,50" fill="#129C6C" /><polygon points="120,44 128.7,38.3 135.1,47.8 144.7,46.8 147.9,58.7 157.2,62.5 156.6,75.1 164.1,83.2 160,94.6 164.6,105.7 157.4,114.3 158.5,126.8 149.4,131.3 146.7,143.4 137,143.1 132,146 132,142 145,132 153,118 156,100 155,80 148,62 136,52 120,50" fill="#129C6C" /><polygon points="98,48 108,44 104,52 94,58" fill="#129C6C" /></g></g><g id="accessory" /><g id="arm"><polygon points="50,240 54,190 62,128 78,126 74,190 76,240" fill="#2A2233" /><polygon points="70,127 78,126 74,190 76,240 66,240 68,190" fill="#2A2233" /><polygon points="60,122 80,120 80,129 60,131" fill="#2A2233" /></g><g id="prop"><g><g transform="translate(70 114) rotate(-8)"><rect x="-1.8" y="-100" width="3.6" height="140" fill="#C7EEDD" stroke="#C7EEDD" stroke-width="6" stroke-linejoin="round" /><rect x="0" y="-100" width="1.8" height="140" fill="#C7EEDD" stroke="#C7EEDD" stroke-width="6" stroke-linejoin="round" /><polygon points="-2.6,-100 2.6,-100 0,-107" fill="#C7EEDD" stroke="#C7EEDD" stroke-width="6" stroke-linejoin="round" /><polygon points="-44,-96 -2,-96 -2,-64 -44,-64" fill="#C7EEDD" stroke="#C7EEDD" stroke-width="6" stroke-linejoin="round" /><polygon points="-14,-96 -2,-96 -2,-64 -18,-64" fill="#C7EEDD" stroke="#C7EEDD" stroke-width="6" stroke-linejoin="round" /><rect x="-21.1" y="-96" width="7.6" height="32" fill="#C7EEDD" stroke="#C7EEDD" stroke-width="6" stroke-linejoin="round" /><rect x="-44" y="-84" width="42" height="8" fill="#C7EEDD" stroke="#C7EEDD" stroke-width="6" stroke-linejoin="round" /><rect x="-19.2" y="-96" width="3.8" height="32" fill="#C7EEDD" stroke="#C7EEDD" stroke-width="6" stroke-linejoin="round" /><rect x="-44" y="-82" width="42" height="4" fill="#C7EEDD" stroke="#C7EEDD" stroke-width="6" stroke-linejoin="round" /></g></g><g id="prop-main"><g transform="translate(70 114) rotate(-8)"><rect x="-1.8" y="-100" width="3.6" height="140" fill="#129C6C" /><rect x="0" y="-100" width="1.8" height="140" fill="#129C6C" /><polygon points="-2.6,-100 2.6,-100 0,-107" fill="#129C6C" /><polygon points="-44,-96 -2,-96 -2,-64 -44,-64" fill="#129C6C" /><polygon points="-14,-96 -2,-96 -2,-64 -18,-64" fill="#129C6C" /><rect x="-21.1" y="-96" width="7.6" height="32" fill="#129C6C" /><rect x="-44" y="-84" width="42" height="8" fill="#129C6C" /><rect x="-19.2" y="-96" width="3.8" height="32" fill="#129C6C" /><rect x="-44" y="-82" width="42" height="4" fill="#129C6C" /></g></g><g id="prop-sub" /></g><g id="hand"><polygon points="62,106 78,106 80,116 76,122 64,122 60,116" fill="#2A2233" /><polygon points="74,106 78,106 80,116 76,122 72,122" fill="#2A2233" /></g></svg>