<svg xmlns="http://www.w3.org/2000/svg" viewBox="0 0 240 240" width="240" height="240" role="img" aria-labelledby="title" data-type="gunshi"><title id="title">？？？</title><g id="bg"><rect width="240" height="240" fill="#D2E2E2" /><polygon points="120,8 203,56 203,152 120,200 36,152 36,56" fill="#BCD3D4" /></g><g id="back" /><g id="body"><polygon points="110,126 130,126 130,158 110,158" fill="#2A2233" id="neck" /><polygon points="80,160 100,150 140,150 160,160 170,240 70,240" fill="#2A2233" /><polygon points="126,150 140,150 160,160 170,240 128,240 138,194" fill="#2A2233" /><polygon points="110,150 130,150 120,168" fill="#2A2233" /><polygon points="106,150 112,150 120,166 128,150 134,150 120,170" fill="#2A2233" /><polygon points="120,166 128,150 134,150 120,170" fill="#2A2233" /><polygon points="100,151 106,150 120,170 117,175" fill="#2A2233" /><polygon points="134,150 140,151 112,214 106,214" fill="#2A2233" /><polygon points="98,164 142,164 144,180 96,180" fill="#2A2233" /><polygon points="120,164 142,164 144,180 120,180" fill="#2A2233" /><polygon points="98,164 142,164 142,167 98,167" fill="#2A2233" /><polygon points="76,190 164,190 165,192.4 75,192.4" fill="#2A2233" /><polygon points="76,202 164,202 165,204.4 75,204.4" fill="#2A2233" /><polygon points="76,214 164,214 165,216.4 75,216.4" fill="#2A2233" /><polygon points="76,226 164,226 165,228.4 75,228.4" fill="#2A2233" /><circle cx="92" cy="173" r="1.4" fill="#2A2233" /><circle cx="104" cy="173" r="1.4" fill="#2A2233" /><circle cx="136" cy="173" r="1.4" fill="#2A2233" /><circle cx="148" cy="173" r="1.4" fill="#2A2233" /><polygon points="58,158 94,150 96,196 60,204" fill="#2A2233" /><polygon points="182,158 146,150 144,196 180,204" fill="#2A2233" /><polygon points="60,166 92,163 93,165.4 61,168.4" fill="#2A2233" /><polygon points="180,166 148,163 147,165.4 179,168.4" fill="#2A2233" /><polygon points="60,178 92,175 93,177.4 61,180.4" fill="#2A2233" /><polygon points="180,178 148,175 147,177.4 179,180.4" fill="#2A2233" /><polygon points="60,190 92,187 93,189.4 61,192.4" fill="#2A2233" /><polygon points="180,190 148,187 147,189.4 179,192.4" fill="#2A2233" /><polygon points="58,158 94,150 94,154 58,162" fill="#2A2233" /><polygon points="182,158 146,150 146,154 182,162" fill="#2A2233" /></g><g id="head"><polygon points="86,94 79,97 80,110 87,114" fill="#2A2233" /><polygon points="154,94 161,97 160,110 153,114" fill="#2A2233" /><polygon points="86,80 96,60 120,52 144,60 154,80 154,108 146,126 120,138 94,126 86,108" fill="#2A2233" /><polygon points="142,62 154,80 154,108 146,126 120,138 134,120 141,98" fill="#2A2233" /></g><g id="hair" /><g id="headgear"><g data-sil="key"><polygon points="86,78 76,86 66,108 70,116 86,110" fill="#D2E2E2" stroke="#D2E2E2" stroke-width="6" stroke-linejoin="round" /><polygon points="154,78 164,86 174,108 170,116 154,110" fill="#D2E2E2" stroke="#D2E2E2" stroke-width="6" stroke-linejoin="round" /><polygon points="86,96 70,112 70,116 86,110" fill="#D2E2E2" stroke="#D2E2E2" stroke-width="6" stroke-linejoin="round" /><polygon points="154,96 170,112 170,116 154,110" fill="#D2E2E2" stroke="#D2E2E2" stroke-width="6" stroke-linejoin="round" /><polygon points="80,80 80,60 86,42 98,30 110,25 120,24 120,80" fill="#D2E2E2" stroke="#D2E2E2" stroke-width="6" stroke-linejoin="round" /><polygon points="160,80 160,60 154,42 142,30 130,25 120,24 120,80" fill="#D2E2E2" stroke="#D2E2E2" stroke-width="6" stroke-linejoin="round" /><polygon points="88,74 76,66 72,82 86,88" fill="#D2E2E2" stroke="#D2E2E2" stroke-width="6" stroke-linejoin="round" /><polygon points="152,74 164,66 168,82 154,88" fill="#D2E2E2" stroke="#D2E2E2" stroke-width="6" stroke-linejoin="round" /><polygon points="80,72 74,68 72,80" fill="#D2E2E2" stroke="#D2E2E2" stroke-width="6" stroke-linejoin="round" /><polygon points="160,72 166,68 168,80" fill="#D2E2E2" stroke="#D2E2E2" stroke-width="6" stroke-linejoin="round" /><polygon points="82,76 120,72 158,76 160,84 120,82 80,84" fill="#D2E2E2" stroke="#D2E2E2" stroke-width="6" stroke-linejoin="round" /><polygon points="82,76 120,72 120,75 84,79" fill="#D2E2E2" stroke="#D2E2E2" stroke-width="6" stroke-linejoin="round" /><polygon points="80,52 120,46 160,52 160,56 120,50 80,56" fill="#D2E2E2" stroke="#D2E2E2" stroke-width="6" stroke-linejoin="round" /><polygon points="92,40 100,32 106,30 98,40" fill="#D2E2E2" stroke="#D2E2E2" stroke-width="6" stroke-linejoin="round" /></g><g data-sil="key"><polygon points="86,78 76,86 66,108 70,116 86,110" fill="#5E8789" /><polygon points="154,78 164,86 174,108 170,116 154,110" fill="#5E8789" /><polygon points="86,96 70,112 70,116 86,110" fill="#5E8789" /><polygon points="154,96 170,112 170,116 154,110" fill="#5E8789" /><polygon points="80,80 80,60 86,42 98,30 110,25 120,24 120,80" fill="#5E8789" /><polygon points="160,80 160,60 154,42 142,30 130,25 120,24 120,80" fill="#5E8789" /><polygon points="88,74 76,66 72,82 86,88" fill="#5E8789" /><polygon points="152,74 164,66 168,82 154,88" fill="#5E8789" /><polygon points="80,72 74,68 72,80" fill="#5E8789" /><polygon points="160,72 166,68 168,80" fill="#5E8789" /><polygon points="82,76 120,72 158,76 160,84 120,82 80,84" fill="#5E8789" /><polygon points="82,76 120,72 120,75 84,79" fill="#5E8789" /><polygon points="80,52 120,46 160,52 160,56 120,50 80,56" fill="#5E8789" /><polygon points="92,40 100,32 106,30 98,40" fill="#5E8789" /></g></g><g id="accessory" /><g id="arm"><polygon points="50,240 58,214 88,210 98,240" fill="#2A2233" /><polygon points="76,211 88,210 98,240 80,240" fill="#2A2233" /><polygon points="56,214 88,209 90,216 58,221" fill="#2A2233" /><polygon points="76,211 88,209 90,216 78,218" fill="#2A2233" /></g><g id="prop"><g><g transform="translate(74 210) rotate(-8)"><rect x="-2.2" y="-18" width="4.4" height="30" fill="#D2E2E2" stroke="#D2E2E2" stroke-width="6" stroke-linejoin="round" /><rect x="0.2" y="-18" width="2" height="30" fill="#D2E2E2" stroke="#D2E2E2" stroke-width="6" stroke-linejoin="round" /><polygon points="0,-59 10,-55 16.2,-44.5 16.2,-31.5 10,-21 0,-17 -10,-21 -16.2,-31.5 -16.2,-44.5 -10,-55" fill="#D2E2E2" stroke="#D2E2E2" stroke-width="6" stroke-linejoin="round" /><polygon points="7.1,-56.1 10,-55 16.2,-44.5 16.2,-31.5 10,-21 0,-17 -2.4,-18" fill="#D2E2E2" stroke="#D2E2E2" stroke-width="6" stroke-linejoin="round" /><polygon points="0,-55 7.9,-51.8 12.8,-43.3 12.8,-32.7 7.9,-24.2 0,-21 -7.9,-24.2 -12.8,-32.7 -12.8,-43.3 -7.9,-51.8" fill="#D2E2E2" stroke="#D2E2E2" stroke-width="6" stroke-linejoin="round" /><polygon points="0,-53 6.8,-50.1 10.9,-42.6 10.9,-33.4 6.8,-25.9 0,-23 -6.8,-25.9 -10.9,-33.4 -10.9,-42.6 -6.8,-50.1" fill="#D2E2E2" stroke="#D2E2E2" stroke-width="6" stroke-linejoin="round" /><polygon points="5,-50.9 6.8,-50.1 10.9,-42.6 10.9,-33.4 6.8,-25.9 0,-23 -1.8,-23.8" fill="#D2E2E2" stroke="#D2E2E2" stroke-width="6" stroke-linejoin="round" /><circle cx="0" cy="-38" r="7" fill="#D2E2E2" stroke="#D2E2E2" stroke-width="6" stroke-linejoin="round" /><path d="M0 -45A7 7 0 0 1 0 -31A3.9 7 0 0 0 0 -45Z" fill="#D2E2E2" stroke="#D2E2E2" stroke-width="6" stroke-linejoin="round" /><polygon points="-4,-16 4,-16 5,-19 -5,-19" fill="#D2E2E2" stroke="#D2E2E2" stroke-width="6" stroke-linejoin="round" /></g></g><g id="prop-main"><g transform="translate(74 210) rotate(-8)"><rect x="-2.2" y="-18" width="4.4" height="30" fill="#5E8789" /><rect x="0.2" y="-18" width="2" height="30" fill="#5E8789" /><polygon points="0,-59 10,-55 16.2,-44.5 16.2,-31.5 10,-21 0,-17 -10,-21 -16.2,-31.5 -16.2,-44.5 -10,-55" fill="#5E8789" /><polygon points="7.1,-56.1 10,-55 16.2,-44.5 16.2,-31.5 10,-21 0,-17 -2.4,-18" fill="#5E8789" /><polygon points="0,-55 7.9,-51.8 12.8,-43.3 12.8,-32.7 7.9,-24.2 0,-21 -7.9,-24.2 -12.8,-32.7 -12.8,-43.3 -7.9,-51.8" fill="#5E8789" /><polygon points="0,-53 6.8,-50.1 10.9,-42.6 10.9,-33.4 6.8,-25.9 0,-23 -6.8,-25.9 -10.9,-33.4 -10.9,-42.6 -6.8,-50.1" fill="#5E8789" /><polygon points="5,-50.9 6.8,-50.1 10.9,-42.6 10.9,-33.4 6.8,-25.9 0,-23 -1.8,-23.8" fill="#5E8789" /><circle cx="0" cy="-38" r="7" fill="#5E8789" /><path d="M0 -45A7 7 0 0 1 0 -31A3.9 7 0 0 0 0 -45Z" fill="#5E8789" /><polygon points="-4,-16 4,-16 5,-19 -5,-19" fill="#5E8789" /></g></g><g id="prop-sub" /></g><g id="hand"><polygon points="60,203 88,203 89,211 84,218 64,218 59,211" fill="#2A2233" /><polygon points="80,203 88,203 89,211 84,218 78,218" fill="#2A2233" /></g></svg>