<svg xmlns="http://www.w3.org/2000/svg" viewBox="0 0 240 240" width="240" height="240" role="img" aria-labelledby="title" data-type="kokou"><title id="title">？？？</title><g id="bg"><rect width="240" height="240" fill="#D3D3F0" /><polygon points="120,8 203,56 203,152 120,200 36,152 36,56" fill="#BDBDE6" /></g><g id="back"><polygon points="84,70 74,96 70,126 64,158 70,176 80,170 88,180 98,170 104,152 136,152 142,170 152,180 160,170 170,176 176,158 170,126 166,96 156,70" fill="#2A2233" /><polygon points="120,70 120,152 136,152 142,170 152,180 160,170 170,176 176,158 170,126 166,96 156,70" fill="#2A2233" /><polygon points="74,112 85,120 76,133" fill="#2A2233" /><polygon points="166,112 155,120 164,133" fill="#2A2233" /><polygon points="70,146 81,152 72,163" fill="#2A2233" /><polygon points="170,146 159,152 168,163" fill="#2A2233" /></g><g id="body"><polygon points="110,126 130,126 130,158 110,158" fill="#2A2233" id="neck" /><polygon points="78,162 102,150 138,150 162,162 174,240 66,240" fill="#2A2233" /><polygon points="128,150 138,150 162,162 174,240 130,240 140,196" fill="#2A2233" /><polygon points="108,156 120,156 120,240 110,240" fill="#2A2233" /><polygon points="120,156 132,156 130,240 120,240" fill="#2A2233" /><polygon points="100,152 110,152 113,178 106,204" fill="#2A2233" /><polygon points="140,152 130,152 127,178 134,204" fill="#2A2233" /><circle cx="120" cy="192" r="2.6" fill="#2A2233" /><circle cx="120" cy="208" r="2.6" fill="#2A2233" /><circle cx="120" cy="224" r="2.6" fill="#2A2233" /><polygon points="110,146 130,146 127,164 120,180 113,164" fill="#2A2233" /><polygon points="120,146 130,146 127,164 120,180" fill="#2A2233" /><polygon points="114,151 120,157 116,165" fill="#2A2233" /></g><g id="head"><polygon points="86,80 96,60 120,52 144,60 154,80 154,108 146,126 120,138 94,126 86,108" fill="#2A2233" /><polygon points="142,62 154,80 154,108 146,126 120,138 134,120 141,98" fill="#2A2233" /></g><g id="hair"><polygon points="120,50 102,53 89,62 82,78 80,98 82,118 88,110 90,92 98,80 109,72 120,70" fill="#2A2233" /><polygon points="120,50 138,53 151,62 158,78 160,98 158,118 152,110 150,92 142,80 131,72 120,70" fill="#2A2233" /><polygon points="96,58 104,46 116,44 112,54" fill="#2A2233" /><polygon points="100,70 108,62 116,60 110,68" fill="#2A2233" /><polygon points="124,44 136,46 144,58 128,54" fill="#2A2233" /><polygon points="80,98 74,106 78,118 84,116" fill="#2A2233" /><polygon points="160,98 166,106 162,118 156,116" fill="#2A2233" /></g><g id="headgear" /><g id="accessory" /><g id="arm"><polygon points="50,240 58,214 88,210 98,240" fill="#2A2233" /><polygon points="76,211 88,210 98,240 80,240" fill="#2A2233" /><polygon points="56,214 88,209 90,216 58,221" fill="#2A2233" /><polygon points="76,211 88,209 90,216 78,218" fill="#2A2233" /></g><g id="prop"><g><g transform="translate(180 38.5)"><rect x="-1" y="-15.5" width="2.6" height="11" fill="#D3D3F0" transform="rotate(12 0 -8.5)" stroke="#D3D3F0" stroke-width="6" stroke-linejoin="round" /><polygon points="-12,-0.5 -7,-7.5 0,-4.5 7,-7.5 12,-0.5 13,9.5 7,18.5 0,16.5 -7,18.5 -13,9.5" fill="#D3D3F0" stroke="#D3D3F0" stroke-width="6" stroke-linejoin="round" /><polygon points="0,-4.5 7,-7.5 12,-0.5 13,9.5 7,18.5 0,16.5 4,5.5" fill="#D3D3F0" stroke="#D3D3F0" stroke-width="6" stroke-linejoin="round" /><polygon points="-9,0.5 -5,-4.5 -5,4.5" fill="#D3D3F0" stroke="#D3D3F0" stroke-width="6" stroke-linejoin="round" /><polygon points="2,-10.5 12,-18.5 10,-9.5" fill="#D3D3F0" stroke="#D3D3F0" stroke-width="6" stroke-linejoin="round" /><polygon points="2,-10.5 10,-9.5 6,-7.5" fill="#D3D3F0" stroke="#D3D3F0" stroke-width="6" stroke-linejoin="round" /></g></g><g id="prop-main"><g transform="translate(180 38.5)"><rect x="-1" y="-15.5" width="2.6" height="11" fill="#4B45A8" transform="rotate(12 0 -8.5)" /><polygon points="-12,-0.5 -7,-7.5 0,-4.5 7,-7.5 12,-0.5 13,9.5 7,18.5 0,16.5 -7,18.5 -13,9.5" fill="#4B45A8" /><polygon points="0,-4.5 7,-7.5 12,-0.5 13,9.5 7,18.5 0,16.5 4,5.5" fill="#4B45A8" /><polygon points="-9,0.5 -5,-4.5 -5,4.5" fill="#4B45A8" /><polygon points="2,-10.5 12,-18.5 10,-9.5" fill="#4B45A8" /><polygon points="2,-10.5 10,-9.5 6,-7.5" fill="#4B45A8" /></g></g><g id="prop-sub"><g transform="translate(74 210) scale(1)"><polygon points="-8,-22 -80,-49 -80,-41" fill="#2A2233" /><polygon points="-8,-21 -80,-41 -80,-33" fill="#2A2233" /><polygon points="-8,-20 -80,-33 -80,-25" fill="#2A2233" /><polygon points="-8,-19 -80,-25 -80,-17" fill="#2A2233" /><polygon points="-8,-18 -80,-17 -80,-9" fill="#2A2233" /><polygon points="-8,-17 -80,-9 -80,-1" fill="#2A2233" /><polygon points="-15,-7 15,-7 0,-35" fill="#2A2233" /><polygon points="0,-35 15,-7 4,-7" fill="#2A2233" /><polygon points="-1,-27 -7,-13 -4,-13" fill="#2A2233" /></g></g></g><g id="hand"><polygon points="60,203 88,203 89,211 84,218 64,218 59,211" fill="#2A2233" /><polygon points="80,203 88,203 89,211 84,218 78,218" fill="#2A2233" /></g></svg>