<svg xmlns="http://www.w3.org/2000/svg" viewBox="0 0 240 240" width="240" height="240" role="img" aria-labelledby="title" data-type="tetsu"><title id="title">？？？</title><g id="bg"><rect width="240" height="240" fill="#D6DBE3" /><polygon points="120,8 203,56 203,152 120,200 36,152 36,56" fill="#C1C8D3" /></g><g id="back" /><g id="body"><polygon points="110,126 130,126 130,158 110,158" fill="#2A2233" id="neck" /><polygon points="86,162 103.2,150 136.8,150 154,162 166,240 74,240" fill="#2A2233" /><polygon points="128,150 136.8,150 154,162 166,240 130,240 138.2,196" fill="#2A2233" /><polygon points="108,150 132,150 126,200 114,200" fill="#2A2233" /><polygon points="120,150 132,150 126,200 120,200" fill="#2A2233" /><polygon points="110,147 130,147 128,156 112,156" fill="#2A2233" /><polygon points="116,155 124,155 125,186 120,192 115,186" fill="#2A2233" /><polygon points="100.5,152 108,150 118,200 110,208" fill="#2A2233" /><polygon points="139.5,152 132,150 122,200 130,208" fill="#2A2233" /><polygon points="119,204 121,204 121,240 119,240" fill="#2A2233" /><circle cx="125" cy="216" r="2" fill="#2A2233" /><circle cx="125" cy="230" r="2" fill="#2A2233" /></g><g id="head"><polygon points="86,94 79,97 80,110 87,114" fill="#2A2233" /><polygon points="154,94 161,97 160,110 153,114" fill="#2A2233" /><polygon points="86,80 96,60 120,52 144,60 154,80 154,108 146,126 120,138 94,126 86,108" fill="#2A2233" /><polygon points="142,62 154,80 154,108 146,126 120,138 134,120 141,98" fill="#2A2233" /></g><g id="hair"><polygon points="83,98 83,76 91,59 104,49 120,47 138,49 150,57 157,74 157,98 152,84 149,72 140,68 126,70 112,72 104,66 97,72 89,84" fill="#2A2233" /><polygon points="131.4,48.3 138,49 150,57 157,74 157,98 152,84 149,72 140,68 135,68.7" fill="#2A2233" /><polygon points="104.5,49.5 107.5,49.5 103,63 101,61.5" fill="#2A2233" /><polygon points="112,54 126,50.5 134,52.5 117,58" fill="#2A2233" /></g><g id="headgear" /><g id="accessory" /><g id="arm"><polygon points="50,240 58,214 88,210 98,240" fill="#2A2233" /><polygon points="76,211 88,210 98,240 80,240" fill="#2A2233" /><polygon points="56,214 88,209 90,216 58,221" fill="#2A2233" /><polygon points="76,211 88,209 90,216 78,218" fill="#2A2233" /></g><g id="prop"><g><g transform="translate(74 206) scale(1.3) translate(-74 -206)"><g transform="translate(73.5 209.1) scale(1.021)"><rect x="-4" y="-44" width="8" height="40" fill="#D6DBE3" stroke="#D6DBE3" stroke-width="6" stroke-linejoin="round" /><polygon points="-16,-40 16,-40 16,-36 -16,-36" fill="#D6DBE3" stroke="#D6DBE3" stroke-width="6" stroke-linejoin="round" /><polygon points="3.1,-40 16,-40 16,-36 2.1,-36" fill="#D6DBE3" stroke="#D6DBE3" stroke-width="6" stroke-linejoin="round" /><polygon points="-16,-12 16,-12 16,-8 -16,-8" fill="#D6DBE3" stroke="#D6DBE3" stroke-width="6" stroke-linejoin="round" /><polygon points="3.1,-12 16,-12 16,-8 2.1,-8" fill="#D6DBE3" stroke="#D6DBE3" stroke-width="6" stroke-linejoin="round" /><polygon points="-14,-36 14,-36 15,-24 14,-12 -14,-12 -15,-24" fill="#D6DBE3" stroke="#D6DBE3" stroke-width="6" stroke-linejoin="round" /><polygon points="5.4,-36 14,-36 15,-24 14,-12 -0.6,-12" fill="#D6DBE3" stroke="#D6DBE3" stroke-width="6" stroke-linejoin="round" /><path d="M-13 -32h26v0.7h-26zM-13 -28h26v0.7h-26zM-13 -24h26v0.7h-26zM-13 -20h26v0.7h-26zM-13 -16h26v0.7h-26z" fill="#D6DBE3" stroke="#D6DBE3" stroke-width="6" stroke-linejoin="round" /><polygon points="14,-20 22,-24 24,-34 23,-34 21,-25 14,-21" fill="#D6DBE3" stroke="#D6DBE3" stroke-width="6" stroke-linejoin="round" /><ellipse cx="-18" cy="-48" rx="5" ry="3.4" fill="#D6DBE3" stroke="#D6DBE3" stroke-width="6" stroke-linejoin="round" /><ellipse cx="-18" cy="-48" rx="5" ry="3.4" fill="#FFFFFF" fill-opacity="0" /><polygon points="-16,-40 16,-40 12,-44 -12,-44" fill="#D6DBE3" stroke="#D6DBE3" stroke-width="6" stroke-linejoin="round" /></g></g></g><g id="prop-main"><g transform="translate(74 206) scale(1.3) translate(-74 -206)"><g transform="translate(73.5 209.1) scale(1.021)"><rect x="-4" y="-44" width="8" height="40" fill="#616C80" /><polygon points="-16,-40 16,-40 16,-36 -16,-36" fill="#616C80" /><polygon points="3.1,-40 16,-40 16,-36 2.1,-36" fill="#616C80" /><polygon points="-16,-12 16,-12 16,-8 -16,-8" fill="#616C80" /><polygon points="3.1,-12 16,-12 16,-8 2.1,-8" fill="#616C80" /><polygon points="-14,-36 14,-36 15,-24 14,-12 -14,-12 -15,-24" fill="#616C80" /><polygon points="5.4,-36 14,-36 15,-24 14,-12 -0.6,-12" fill="#616C80" /><path d="M-13 -32h26v0.7h-26zM-13 -28h26v0.7h-26zM-13 -24h26v0.7h-26zM-13 -20h26v0.7h-26zM-13 -16h26v0.7h-26z" fill="#616C80" /><polygon points="14,-20 22,-24 24,-34 23,-34 21,-25 14,-21" fill="#616C80" /><ellipse cx="-18" cy="-48" rx="5" ry="3.4" fill="#616C80" /><ellipse cx="-18" cy="-48" rx="5" ry="3.4" fill="#FFFFFF" fill-opacity="0" /><polygon points="-16,-40 16,-40 12,-44 -12,-44" fill="#616C80" /></g></g></g><g id="prop-sub" /></g><g id="hand"><polygon points="60,203 88,203 89,211 84,218 64,218 59,211" fill="#2A2233" /><polygon points="80,203 88,203 89,211 84,218 78,218" fill="#2A2233" /></g></svg>