<svg xmlns="http://www.w3.org/2000/svg" viewBox="0 0 240 240" width="240" height="240" role="img" aria-labelledby="title" data-figure="dunant" data-type="jiai"><title id="title">アンリ・デュナン</title><g id="bg"><rect x="0" y="0" width="240" height="240" fill="#FCDDDD"/><polygon points="0,0 96,0 0,84" fill="#F8C7C7"/><polygon points="240,240 240,128 150,240" fill="#F8C7C7"/><polygon points="120,8 203,56 203,152 120,200 36,152 36,56" fill="#F8C7C7"/><g fill="#E0676F" fill-opacity="0.55"><polygon points="206,30 208,38.3 216,40 208,41.7 206,50 204,41.7 196,40 204,38.3"/><polygon points="220,92 221.5,97 226,98 221.5,99 220,104 218.5,99 214,98 218.5,97"/></g></g><g id="back"><polygon points="86,82 78,94 77,116 84,124 90,118" fill="#E9E6E1"/><polygon points="154,82 162,94 163,116 156,124 150,118" fill="#BFB9C1"/></g><g id="body"><polygon points="110,126 130,126 130,158 110,158" fill="#E7BBAA" id="neck"/><polygon points="78,162 102,150 138,150 162,162 174,240 66,240" fill="#F7F4EE"/><polygon points="128,150 138,150 162,162 174,240 130,240 140,196" fill="#E4E0DF"/><polygon points="108,150 132,150 126,200 114,200" fill="#8D8F99"/><polygon points="120,150 132,150 126,200 120,200" fill="#858593"/><polygon points="110,147 130,147 128,156 112,156" fill="#888995"/><polygon points="116,155 124,155 125,186 120,192 115,186" fill="#4B4652"/><polygon points="98,152 108,150 118,200 110,208" fill="#F8F6F1"/><polygon points="142,152 132,150 122,200 130,208" fill="#C9C5C4"/><polygon points="119,204 121,204 121,240 119,240" fill="#C2BEBE"/><circle cx="125" cy="216" r="2" fill="#ABA8A7"/><circle cx="125" cy="230" r="2" fill="#ABA8A7"/></g><g id="head"><polygon points="86,94 79,97 80,110 87,114" fill="#F8DCC8"/><polygon points="154,94 161,97 160,110 153,114" fill="#E7BBAA"/><polygon points="86,80 96,60 120,52 144,60 154,80 154,108 146,126 120,138 94,126 86,108" fill="#F8DCC8"/><polygon points="142,62 154,80 154,108 146,126 120,138 134,120 141,98" fill="#E7BBAA"/><polygon points="98,64 110,56 116,56 104,66" fill="#FAE6D7"/></g><g id="face"><polygon points="120,104 124,114 117,114" fill="#E7BBAA"/><g fill="#938E93"><polygon points="97,92 105,90 113,86 113,89.5 105,93.5 98,95.5" fill="#938E93"/><polygon points="143,92 135,90 127,86 127,89.5 135,93.5 142,95.5" fill="#938E93"/></g><ellipse cx="106" cy="101" rx="4.3" ry="5.5" fill="#2A2233"/><ellipse cx="134" cy="101" rx="4.3" ry="5.5" fill="#2A2233"/><polygon points="101.8,99 97.5,96.5 101,97" fill="#2A2233"/><polygon points="138.2,99 142.5,96.5 139,97" fill="#2A2233"/><g><circle cx="104.4" cy="99.8" r="1.6" fill="#FFFFFF"/><circle cx="132.4" cy="99.8" r="1.6" fill="#FFFFFF"/></g><polygon points="113.5,121 126.5,121 123.5,126.5 116.5,126.5" fill="#C9545F"/><polygon points="86,96 91,112 99,121 107,126.5 113,129.5 120,130.5 127,129.5 133,126.5 141,121 149,112 154,96 155,110 148,129 136,141 120,147 104,141 92,129 85,110" fill="#E9E6E1"/><polygon points="129.2,128.4 133,126.5 141,121 149,112 154,96 155,110 148,129 136,141 130.4,143.1" fill="#BFB9C1"/><polygon points="120,115.5 110,115.5 103,118.5 100.5,124 110,121.5 120,120.5" fill="#E9E6E1"/><polygon points="120,115.5 130,115.5 137,118.5 139.5,124 130,121.5 120,120.5" fill="#BFB9C1"/><g fill="#DAA293"><polygon points="107,77 120,75.5 133,77 133,78.8 120,77.4 107,78.8" fill="#DAA293"/><polygon points="110,81.5 120,80.4 130,81.5 130,83 120,82 110,83" fill="#DAA293"/><polygon points="95,100 91,98 91,99.6 95,101.6" fill="#DAA293"/><polygon points="95,104 91,105.5 91,107 95,105.4" fill="#DAA293"/><polygon points="145,100 149,98 149,99.6 145,101.6" fill="#DAA293"/><polygon points="145,104 149,105.5 149,107 145,105.4" fill="#DAA293"/></g></g><g id="hair"><polygon points="82,100 81,88 85,80 91,77 94,86 91,96 88,102" fill="#E9E6E1"/><polygon points="158,100 159,88 155,80 149,77 146,86 149,96 152,102" fill="#BFB9C1"/><polygon points="84,86 88,80 89,84 85,90" fill="#EFEDE9"/></g><g id="headgear"></g><g id="accessory"><polygon points="137,164 147,164 146,174 138,174" fill="#DD4435"/><polygon points="142,164 147,164 146,174 142,174" fill="#B63E3E"/><polygon points="142,174 144,178.2 148.7,178.8 145.2,182.1 146.1,186.7 142,184.4 137.9,186.7 138.8,182.1 135.3,178.8 140,178.2" fill="#E3B341"/><circle cx="142" cy="181" r="2.6" fill="#BB9247"/></g><g id="arm"><polygon points="50,240 58,214 88,210 98,240" fill="#F7F4EE"/><polygon points="76,211 88,210 98,240 80,240" fill="#E4E0DF"/><polygon points="56,214 88,209 90,216 58,221" fill="#F7F4EE"/><polygon points="76,211 88,209 90,216 78,218" fill="#E4E0DF"/></g><g id="prop"><g id="prop-main"><g transform="translate(69.2 205.4) scale(1.2)"><polygon points="6,-10 22,-16 24,-6 8,-2" fill="#E6DFE2"/><polygon points="22,-16 24,-6 22,-8" fill="#D6CFD6"/><circle cx="0" cy="-24" r="16" fill="#F7F4EE"/><path d="M0 -40A16 16 0 0 1 0 -8A8.8 16 0 0 0 0 -40Z" fill="#D6CFD8"/><circle cx="0" cy="-24" r="7" fill="#DCD4DE"/><circle cx="0" cy="-24" r="4" fill="#BDB3C0"/><path d="M-12 -34h1v20h-1zM-7 -34h1v20h-1zM-2 -34h1v20h-1zM3 -34h1v20h-1zM8 -34h1v20h-1z" fill="#E6DFE2"/><path d="M-11 -35A15 15 0 0 1 11 -35L10 -34A13.6 13.6 0 0 0 -10 -34Z" fill="#FFFFFF"/></g></g><g id="prop-sub"></g></g><g id="hand"><polygon points="60,203 88,203 89,211 84,218 64,218 59,211" fill="#F8DCC8"/><polygon points="80,203 88,203 89,211 84,218 78,218" fill="#E7BBAA"/></g><g id="fx"></g></svg>