<svg xmlns="http://www.w3.org/2000/svg" viewBox="0 0 240 240" width="240" height="240" role="img" aria-labelledby="title" data-figure="tesla" data-type="kokou"><title id="title">ニコラ・テスラ</title><g id="bg"><rect x="0" y="0" width="240" height="240" fill="#D3D3F0"/><polygon points="0,240 0,150 70,240" fill="#C1C1E7"/><polygon points="120,14 170.5,30.4 201.8,73.4 201.8,126.6 170.5,169.6 120,186 69.5,169.6 38.2,126.6 38.2,73.4 69.5,30.4" fill="#BDBDE6"/><polygon points="120,14 170,30 201,73 120,100" fill="#B3B2E0"/><path d="M42.2 31.1 A17 17 0 1 0 60.4 52.3 A14 14 0 1 1 42.2 31.1 Z" fill="#FFF6D6"/><g fill="#FFFFFF" fill-opacity="0.85"><polygon points="210,146 211.5,151 216,152 211.5,153 210,158 208.5,153 204,152 208.5,151"/><polygon points="24,106 25.2,110.2 29,111 25.2,111.8 24,116 22.8,111.8 19,111 22.8,110.2"/><polygon points="92,22 93,25.3 96,26 93,26.7 92,30 91,26.7 88,26 91,25.3"/></g></g><g id="back"></g><g id="body"><polygon points="110,126 130,126 130,158 110,158" fill="#E7BBAA" id="neck"/><polygon points="86,162 103.2,150 136.8,150 154,162 166,240 74,240" fill="#4F4C54"/><polygon points="128,150 136.8,150 154,162 166,240 130,240 138.2,196" fill="#2E2A33"/><polygon points="108,150 132,150 126,200 114,200" fill="#F7F4EE"/><polygon points="120,150 132,150 126,200 120,200" fill="#E4E0DF"/><polygon points="110,147 130,147 128,156 112,156" fill="#ECE8E5"/><polygon points="116,155 124,155 125,186 120,192 115,186" fill="#4B4652"/><polygon points="100.5,152 108,150 118,200 110,208" fill="#69666C"/><polygon points="139.5,152 132,150 122,200 130,208" fill="#28252D"/><polygon points="119,204 121,204 121,240 119,240" fill="#27242B"/><circle cx="125" cy="216" r="2" fill="#222026"/><circle cx="125" cy="230" r="2" fill="#222026"/></g><g id="head"><polygon points="86,94 79,97 80,110 87,114" fill="#F8DCC8"/><polygon points="154,94 161,97 160,110 153,114" fill="#E7BBAA"/><polygon points="86,80 96,60 120,52 144,60 154,80 154,108 146,126 120,138 94,126 86,108" fill="#F8DCC8"/><polygon points="142,62 154,80 154,108 146,126 120,138 134,120 141,98" fill="#E7BBAA"/></g><g id="face"><polygon points="120,104 124,114 117,114" fill="#E7BBAA"/><g fill="#2B2630"><polygon points="97,89.5 113,89 113,93 97,94" fill="#2B2630"/><polygon points="143,89.5 127,89 127,93 143,94" fill="#2B2630"/></g><polygon points="99,100 113,99.5 112.5,103.5 99.5,103.5" fill="#2A2233"/><polygon points="141,100 127,99.5 127.5,103.5 140.5,103.5" fill="#2A2233"/><g><circle cx="103" cy="101.2" r="1.1" fill="#FFFFFF"/><circle cx="131" cy="101.2" r="1.1" fill="#FFFFFF"/></g><polygon points="113,125 125,124 129,121 128,126 114,127" fill="#8E3B3B"/><polygon points="119,116 109,118 103,123 111,121 119,119" fill="#2B2630"/><polygon points="121,116 131,118 137,123 129,121 121,119" fill="#1F1B23"/></g><g id="hair"><polygon points="83,98 83,76 91,59 104,49 120,47 138,49 150,57 157,74 157,98 152,84 149,72 140,68 126,70 112,72 104,66 97,72 89,84" fill="#2B2630"/><polygon points="131.4,48.3 138,49 150,57 157,74 157,98 152,84 149,72 140,68 135,68.7" fill="#1F1B23"/><polygon points="104.5,49.5 107.5,49.5 103,63 101,61.5" fill="#F8DCC8"/><polygon points="112,54 126,50.5 134,52.5 117,58" fill="#4D4951"/></g><g id="headgear"></g><g id="accessory"><polygon points="107,146 118,151 118,155 107,160" fill="#4F4C54"/><polygon points="133,146 122,151 122,155 133,160" fill="#2E2A33"/><rect x="117" y="149.5" width="6" height="7" fill="#2E2A33"/></g><g id="arm"><polygon points="50,240 58,214 88,210 98,240" fill="#4F4C54"/><polygon points="76,211 88,210 98,240 80,240" fill="#2E2A33"/><polygon points="56,214 88,209 90,216 58,221" fill="#F7F4EE"/><polygon points="76,211 88,209 90,216 78,218" fill="#E4E0DF"/></g><g id="prop"><g id="prop-main"><g transform="translate(74 206) scale(1.35) translate(-74 -206)"><g transform="translate(74.4 206.6) scale(0.891)"><rect x="-13" y="-10" width="26" height="6" fill="#4F4C54"/><rect x="2.6" y="-10" width="10.4" height="6" fill="#2E2A33"/><rect x="-7" y="-44" width="14" height="34" fill="#C9754A"/><rect x="1.7" y="-44" width="5.3" height="34" fill="#A7634E"/><path d="M-7 -42h14v1.2h-14zM-7 -38h14v1.2h-14zM-7 -34h14v1.2h-14zM-7 -30h14v1.2h-14zM-7 -26h14v1.2h-14zM-7 -22h14v1.2h-14zM-7 -18h14v1.2h-14zM-7 -14h14v1.2h-14z" fill="#8E4A34"/><ellipse cx="0" cy="-48" rx="13" ry="5.5" fill="#C8CDD6"/><polygon points="0,-53.5 13,-48 0,-42.5" fill="#A9B0BE"/><rect x="-1" y="-52" width="2" height="4" fill="#8D95A5"/><polygon points="-12,-50 -18,-56 -15,-57 -22,-64 -17,-59 -20,-58 -14,-52" fill="#9A7BE0"/><polygon points="12,-50 18,-57 15,-58 21,-66 17,-60 20,-60 14,-51" fill="#9A7BE0"/><polygon points="2,-54 4,-60 1,-61 4,-68 3,-62 6,-61 3,-55" fill="#9A7BE0"/></g></g></g><g id="prop-sub"></g></g><g id="hand"><polygon points="60,203 88,203 89,211 84,218 64,218 59,211" fill="#F8DCC8"/><polygon points="80,203 88,203 89,211 84,218 78,218" fill="#E7BBAA"/></g><g id="fx"><polygon points="204.9,22 216,22 209.6,35 214.9,35 199.3,58 203.8,40 197.5,40" fill="#F6CE3A"/><polygon points="209.6,35 214.9,35 199.3,58 207.8,38.6" fill="#C9A742"/><polygon points="215.2,97 223.3,97 218.6,106.4 222.4,106.4 211.2,123 214.4,110 209.9,110" fill="#F6CE3A"/><polygon points="218.6,106.4 222.4,106.4 211.2,123 217.3,109" fill="#C9A742"/></g></svg>