<svg xmlns="http://www.w3.org/2000/svg" viewBox="0 0 240 240" width="240" height="240" role="img" aria-labelledby="title" data-figure="tokugawa-yoshimune" data-type="kinkou"><title id="title">徳川吉宗</title><g id="bg"><rect x="0" y="0" width="240" height="240" fill="#E4E4E0"/><rect x="120" y="0" width="120" height="240" fill="#D5D5CF"/><polygon points="120,20 60,50 40,110 60,170 120,196" fill="#EEEEEB"/><polygon points="120,20 180,50 200,110 180,170 120,196" fill="#E2E2DD"/></g><g id="back"></g><g id="body"><polygon points="107,126 133,126 133,152 107,152" fill="#C28768" id="neck"/><polygon points="70,156.4 97.7,146 142.3,146 170,156.4 180,240 60,240" fill="#74AEE0"/><polygon points="126,146 142.3,146 170,156.4 180,240 128,240 139.5,192" fill="#668EC0"/><polygon points="106,146 134,146 130,240 110,240" fill="#F7F4EE"/><polygon points="120,173.2 134,146 130,240 120,240" fill="#E4E0DF"/><polygon points="110,146 130,146 120,164.8" fill="#C28768"/><polygon points="106,146 112,146 120,162.7 128,146 134,146 120,173.2" fill="#E2DFDB"/><polygon points="120,162.7 128,146 134,146 120,173.2" fill="#D1CDCE"/><polygon points="97.7,147 106,146 120,173.2 117,178.4" fill="#D1CCD1"/><polygon points="134,146 142.3,147 112,212.8 106,212.8" fill="#BCB8BC"/><polygon points="110,221.2 130,221.2 130,240 110,240" fill="#4B4652"/><polygon points="94.9,147 106,146 110,240 100.5,240" fill="#6394BE"/><polygon points="134,146 145.1,147 139.5,240 130,240" fill="#5782A7"/><polygon points="110,187.8 120,183.6 130,187.8 120,194" fill="#F7F4EE"/><polygon points="118,192 122,192 124,204.5 116,204.5" fill="#E4E0DF"/></g><g id="head"><polygon points="86,94 79,97 80,110 87,114" fill="#D9A37A"/><polygon points="154,94 161,97 160,110 153,114" fill="#C28768"/><polygon points="86,80 96,60 120,52 144,60 154,80 156,110 149,128 120,140 91,128 84,110" fill="#D9A37A"/><polygon points="142,62 154,80 156,110 149,128 120,140 134,121 141,98" fill="#C28768"/></g><g id="face"><polygon points="120,104 124,114 117,114" fill="#C28768"/><g fill="#2B2630"><polygon points="97,89.5 113,89 113,93 97,94" fill="#2B2630"/><polygon points="143,89.5 127,89 127,93 143,94" fill="#2B2630"/></g><polygon points="99,99 113,100 112,106 101,105" fill="#2A2233"/><polygon points="141,99 127,100 128,106 139,105" fill="#2A2233"/><g><circle cx="104" cy="101.8" r="2.2" fill="#FFFFFF"/><circle cx="132" cy="101.8" r="2.2" fill="#FFFFFF"/><circle cx="109.3" cy="104" r="0.9" fill="#FFFFFF"/><circle cx="137.3" cy="104" r="0.9" fill="#FFFFFF"/></g><polygon points="110,119.5 130,119.5 128,126 112,126" fill="#8E3B3B"/><polygon points="111.5,120.5 128.5,120.5 128,123 112,123" fill="#F7F4EE"/></g><g id="hair"><polygon points="88,78 96,60 120,52 144,60 152,78 146,72 134,68 120,67 106,68 94,72" fill="#C3A594"/><polygon points="132.8,56.3 144,60 152,78 146,72 134.9,68.3" fill="#B49388"/><polygon points="83,100 83,80 87,69 95,62 98,69 92,80 90,90 89,100" fill="#2B2630"/><polygon points="157,100 157,80 153,69 145,62 142,69 148,80 150,90 151,100" fill="#1F1B23"/><polygon points="86,76 90,69 92,71 88,80" fill="#4D4951"/><polygon points="113,40 127,40 126,61 114,61" fill="#2B2630"/><polygon points="120,40 127,40 126,61 120,61" fill="#1F1B23"/><polygon points="111.5,41 128.5,41 125,33 115,33" fill="#2B2630"/><polygon points="120,41 128.5,41 125,33 120,33" fill="#1F1B23"/><polygon points="115,37 118,34.5 118,46 115.5,48" fill="#4D4951"/><polygon points="113.3,51 126.7,51 126.5,55 113.5,55" fill="#F7F4EE"/><polygon points="120,51 126.7,51 126.5,55 120,55" fill="#E6DFE2"/></g><g id="headgear"></g><g id="accessory"><circle cx="93" cy="178" r="7" fill="#F7F4EE"/><circle cx="93" cy="178" r="6.72" fill="#2F5D9E"/><circle cx="93" cy="178" r="5.6" fill="#F7F4EE"/><polygon points="93,178.4 91.2,179.4 90.2,180.9 90.5,182.3 91.6,183 92.9,182.3 93.1,182.3 94.4,183 95.5,182.3 95.8,180.9 94.8,179.4" fill="#2F5D9E"/><polygon points="92.6,177.8 92.7,175.7 91.9,174.1 90.5,173.6 89.3,174.3 89.3,175.7 89.2,176 87.9,176.7 88,178 89.1,179 90.9,178.9" fill="#2F5D9E"/><polygon points="93.4,177.8 95.1,178.9 96.9,179 98,178 98.1,176.7 96.8,176 96.7,175.7 96.7,174.3 95.5,173.6 94.1,174.1 93.3,175.7" fill="#2F5D9E"/><circle cx="147" cy="178" r="7" fill="#F7F4EE"/><circle cx="147" cy="178" r="6.72" fill="#2F5D9E"/><circle cx="147" cy="178" r="5.6" fill="#F7F4EE"/><polygon points="147,178.4 145.2,179.4 144.2,180.9 144.5,182.3 145.6,183 146.9,182.3 147.1,182.3 148.4,183 149.5,182.3 149.8,180.9 148.8,179.4" fill="#2F5D9E"/><polygon points="146.6,177.8 146.7,175.7 145.9,174.1 144.5,173.6 143.3,174.3 143.3,175.7 143.2,176 141.9,176.7 142,178 143.1,179 144.9,178.9" fill="#2F5D9E"/><polygon points="147.4,177.8 149.1,178.9 150.9,179 152,178 152.1,176.7 150.8,176 150.7,175.7 150.7,174.3 149.5,173.6 148.1,174.1 147.3,175.7" fill="#2F5D9E"/></g><g id="arm"><polygon points="60,240 70,204 100,196 104,214 94,240" fill="#74AEE0"/><polygon points="88,200 100,196 104,214 94,240 84,240" fill="#6D9ED0"/><polygon points="180,240 170,204 140,196 136,214 146,240" fill="#668EC0"/><polygon points="92,208 106,212 100,240 80,240" fill="#6DA4D3"/><polygon points="148,208 134,212 140,240 160,240" fill="#6085B4"/></g><g id="prop"><g id="prop-main"><g transform="translate(118.7 205.8) scale(1.3)"><polygon points="-22,-34 18,-34 24,-40 -16,-40" fill="#C98A58"/><rect x="-22" y="-34" width="40" height="28" fill="#A0643C"/><rect x="18" y="-34" width="0" height="28" fill="#885644"/><polygon points="18,-34 24,-40 24,-12 18,-6" fill="#7A4A2E"/><rect x="-6" y="-38.6" width="14" height="2" fill="#3A2A22"/><rect x="-22" y="-34" width="40" height="2.4" fill="#BB9247"/><rect x="-22" y="-9" width="40" height="2.4" fill="#BB9247"/><rect x="-12" y="-28" width="14" height="18" fill="#FFFDF8"/><rect x="-5" y="-28" width="7" height="18" fill="#EFE6D6"/><path d="M-5.8 -25.9h1.1v1.3h-1.1zM-7.2 -24.1h0.9v4h-0.9zM-3.7 -24.8h0.9v5.2h-0.9zM-7.2 -22.5h4.4v0.9h-4.4zM-8 -20.9h6v0.9h-6zM-7.6 -18.1h5.2v0.9h-5.2zM-7.3 -17.4h0.9v5.1h-0.9zM-8.2 -16h2.2v0.9h-2.2zM-5.3 -16.8h3v0.9h-3zM-5.3 -16.8h0.9v3.2h-0.9zM-3.2 -16.8h0.9v3.2h-0.9zM-5.3 -14.4h3v0.9h-3zM-5.3 -15.1h3v0.9h-3zM-4.3 -18.6h0.9v1.4h-0.9z" fill="#2A2233"/><rect x="8" y="-22" width="5" height="6" fill="#E3B341"/><circle cx="10.5" cy="-19" r="1" fill="#3A2A22"/></g></g><g id="prop-sub"></g></g><g id="hand"><polygon points="92,192 104,190 109,200 106,211 95,212 90,202" fill="#D9A37A"/><polygon points="102,191 104,190 109,200 106,211 100,212" fill="#C28768"/><polygon points="148,192 136,190 131,200 134,211 145,212 150,202" fill="#C28768"/></g><g id="fx"></g></svg>